<svg xmlns="http://www.w3.org/2000/svg" xmlns:xlink="http://www.w3.org/1999/xlink" width="406" zoomAndPan="magnify" viewBox="0 0 304.5 66.75" height="89" preserveAspectRatio="xMidYMid meet" version="1.0"><defs><g/></defs><g fill="#000000" fill-opacity="1"><g transform="translate(2.003624, 49.407489)"><g><path d="M 18.40625 -34.75 C 18.4375 -34.707031 18.46875 -34.664062 18.5 -34.625 C 18.539062 -34.59375 18.617188 -34.613281 18.734375 -34.6875 C 18.804688 -34.6875 18.972656 -34.6875 19.234375 -34.6875 C 19.492188 -34.6875 19.78125 -34.675781 20.09375 -34.65625 C 20.40625 -34.644531 20.707031 -34.59375 21 -34.5 C 21.300781 -34.40625 21.523438 -34.285156 21.671875 -34.140625 C 21.785156 -33.992188 21.929688 -33.863281 22.109375 -33.75 C 22.296875 -33.632812 22.519531 -33.5625 22.78125 -33.53125 C 23.070312 -33.488281 23.398438 -33.382812 23.765625 -33.21875 C 24.140625 -33.050781 24.550781 -32.878906 25 -32.703125 L 25.21875 -31.8125 L 26.484375 -31.03125 C 26.566406 -30.625 26.660156 -30.21875 26.765625 -29.8125 C 26.878906 -29.40625 26.972656 -29 27.046875 -28.59375 L 26 -27.484375 L 24.828125 -26.9375 L 24.109375 -27.328125 L 23.0625 -26.4375 L 21.953125 -26.9375 L 22.21875 -27.875 C 22.039062 -28.0625 21.882812 -28.238281 21.75 -28.40625 C 21.625 -28.570312 21.488281 -28.691406 21.34375 -28.765625 C 21.1875 -28.835938 21.035156 -28.9375 20.890625 -29.0625 C 20.742188 -29.195312 20.523438 -29.265625 20.234375 -29.265625 C 20.117188 -29.265625 19.828125 -29.253906 19.359375 -29.234375 C 18.898438 -29.210938 18.398438 -29.175781 17.859375 -29.125 C 17.328125 -29.070312 16.820312 -29.015625 16.34375 -28.953125 C 15.863281 -28.898438 15.535156 -28.835938 15.359375 -28.765625 C 15.054688 -28.617188 14.800781 -28.5 14.59375 -28.40625 C 14.394531 -28.3125 14.210938 -28.21875 14.046875 -28.125 C 13.878906 -28.03125 13.703125 -27.910156 13.515625 -27.765625 C 13.335938 -27.617188 13.117188 -27.4375 12.859375 -27.21875 C 12.453125 -26.769531 12.109375 -26.359375 11.828125 -25.984375 C 11.554688 -25.617188 11.289062 -25.304688 11.03125 -25.046875 C 10.769531 -24.828125 10.523438 -24.492188 10.296875 -24.046875 C 10.078125 -23.609375 9.863281 -23.117188 9.65625 -22.578125 C 9.457031 -22.046875 9.285156 -21.484375 9.140625 -20.890625 C 8.992188 -20.296875 8.882812 -19.757812 8.8125 -19.28125 C 8.738281 -18.769531 8.664062 -18.21875 8.59375 -17.625 C 8.519531 -17.03125 8.460938 -16.460938 8.421875 -15.921875 C 8.390625 -15.390625 8.398438 -14.894531 8.453125 -14.4375 C 8.503906 -13.976562 8.625 -13.632812 8.8125 -13.40625 C 9.144531 -12.851562 9.3125 -12.484375 9.3125 -12.296875 C 9.195312 -12.046875 9.492188 -11.566406 10.203125 -10.859375 C 10.453125 -10.453125 10.707031 -10.097656 10.96875 -9.796875 C 11.226562 -9.503906 11.453125 -9.210938 11.640625 -8.921875 C 12.003906 -8.734375 12.296875 -8.582031 12.515625 -8.46875 C 12.742188 -8.363281 12.929688 -8.273438 13.078125 -8.203125 C 13.222656 -8.054688 13.34375 -7.960938 13.4375 -7.921875 C 13.53125 -7.890625 13.632812 -7.835938 13.75 -7.765625 C 13.894531 -7.679688 14.039062 -7.628906 14.1875 -7.609375 C 14.332031 -7.597656 14.519531 -7.519531 14.75 -7.375 C 14.925781 -7.257812 15.3125 -7.164062 15.90625 -7.09375 C 16.5 -7.019531 17.132812 -6.960938 17.8125 -6.921875 C 18.5 -6.890625 19.15625 -6.84375 19.78125 -6.78125 C 20.414062 -6.726562 20.878906 -6.6875 21.171875 -6.65625 C 21.867188 -6.875 22.421875 -6.960938 22.828125 -6.921875 C 23.203125 -6.847656 23.5 -6.925781 23.71875 -7.15625 C 23.976562 -7.332031 24.203125 -7.421875 24.390625 -7.421875 C 24.753906 -7.347656 25.046875 -7.3125 25.265625 -7.3125 L 25.65625 -6.984375 C 25.507812 -6.796875 25.378906 -6.691406 25.265625 -6.671875 C 25.160156 -6.660156 25.070312 -6.578125 25 -6.421875 C 24.882812 -6.242188 24.753906 -6.070312 24.609375 -5.90625 C 24.460938 -5.738281 24.257812 -5.582031 24 -5.4375 C 23.519531 -5.207031 23.054688 -4.875 22.609375 -4.4375 C 22.203125 -4.25 21.664062 -4.097656 21 -3.984375 C 20.332031 -3.878906 19.648438 -3.796875 18.953125 -3.734375 C 18.253906 -3.679688 17.585938 -3.664062 16.953125 -3.6875 C 16.328125 -3.707031 15.867188 -3.769531 15.578125 -3.875 C 15.023438 -4.019531 14.488281 -4.09375 13.96875 -4.09375 C 13.664062 -4.09375 13.453125 -4.082031 13.328125 -4.0625 C 13.203125 -4.050781 13.0625 -4.007812 12.90625 -3.9375 C 12.757812 -3.863281 12.628906 -3.789062 12.515625 -3.71875 C 12.410156 -3.644531 12.265625 -3.566406 12.078125 -3.484375 C 11.597656 -3.640625 11.226562 -3.882812 10.96875 -4.21875 C 10.789062 -4.4375 10.570312 -4.507812 10.3125 -4.4375 C 10.195312 -4.394531 10.070312 -4.382812 9.9375 -4.40625 C 9.8125 -4.425781 9.640625 -4.453125 9.421875 -4.484375 C 9.347656 -4.671875 9.300781 -4.847656 9.28125 -5.015625 C 9.257812 -5.179688 9.210938 -5.335938 9.140625 -5.484375 C 9.109375 -5.554688 8.914062 -5.785156 8.5625 -6.171875 C 8.207031 -6.566406 7.660156 -6.984375 6.921875 -7.421875 C 6.367188 -7.941406 5.867188 -8.46875 5.421875 -9 C 4.984375 -9.539062 4.632812 -10.144531 4.375 -10.8125 C 4.082031 -11.394531 3.820312 -12.113281 3.59375 -12.96875 C 3.375 -13.820312 3.207031 -14.71875 3.09375 -15.65625 C 2.988281 -16.59375 2.9375 -17.53125 2.9375 -18.46875 C 2.9375 -19.414062 3.007812 -20.257812 3.15625 -21 C 3.457031 -22.519531 3.835938 -23.769531 4.296875 -24.75 C 4.753906 -25.726562 5.171875 -26.472656 5.546875 -26.984375 C 5.722656 -27.242188 5.929688 -27.578125 6.171875 -27.984375 C 6.421875 -28.390625 6.726562 -28.910156 7.09375 -29.546875 L 7.703125 -29.875 L 7.8125 -30.484375 C 8.476562 -31.078125 9.03125 -31.566406 9.46875 -31.953125 C 9.914062 -32.335938 10.3125 -32.664062 10.65625 -32.9375 C 11.007812 -33.21875 11.332031 -33.429688 11.625 -33.578125 C 11.925781 -33.734375 12.265625 -33.847656 12.640625 -33.921875 C 12.816406 -33.921875 13.144531 -33.945312 13.625 -34 C 14.113281 -34.050781 14.648438 -34.113281 15.234375 -34.1875 C 15.828125 -34.269531 16.410156 -34.351562 16.984375 -34.4375 C 17.554688 -34.53125 18.03125 -34.632812 18.40625 -34.75 Z M 18.40625 -34.75 "/></g></g></g><g fill="#000000" fill-opacity="1"><g transform="translate(32.535925, 49.407489)"><g><path d="M 31.703125 -22.0625 C 31.628906 -21.726562 31.628906 -21.0625 31.703125 -20.0625 C 31.734375 -19.65625 31.710938 -19.285156 31.640625 -18.953125 C 31.566406 -18.617188 31.476562 -18.304688 31.375 -18.015625 C 31.300781 -17.828125 31.21875 -17.628906 31.125 -17.421875 C 31.03125 -17.222656 30.945312 -16.957031 30.875 -16.625 C 30.832031 -16.4375 30.71875 -16.101562 30.53125 -15.625 C 30.351562 -15.144531 30.097656 -14.460938 29.765625 -13.578125 L 29.59375 -13.578125 L 29.046875 -13.359375 L 29.15625 -13.359375 C 28.820312 -12.910156 28.503906 -12.410156 28.203125 -11.859375 C 27.910156 -11.304688 27.632812 -10.769531 27.375 -10.25 L 27.265625 -10.25 L 26.765625 -9.859375 C 26.472656 -9.566406 26.175781 -9.21875 25.875 -8.8125 C 25.582031 -8.40625 25.234375 -7.976562 24.828125 -7.53125 C 24.015625 -6.613281 23.109375 -5.882812 22.109375 -5.34375 C 21.109375 -4.8125 20.128906 -4.472656 19.171875 -4.328125 L 18.953125 -3.828125 L 19.125 -3.4375 L 18.953125 -3.4375 C 18.765625 -3.4375 18.648438 -3.4375 18.609375 -3.4375 C 18.578125 -3.4375 18.523438 -3.398438 18.453125 -3.328125 C 18.378906 -3.285156 18.238281 -3.253906 18.03125 -3.234375 C 17.832031 -3.222656 17.585938 -3.253906 17.296875 -3.328125 C 17.035156 -3.359375 16.773438 -3.390625 16.515625 -3.421875 C 16.253906 -3.460938 15.976562 -3.484375 15.6875 -3.484375 C 14.90625 -3.410156 13.976562 -3.5625 12.90625 -3.9375 C 12.351562 -4.082031 11.890625 -4.226562 11.515625 -4.375 C 11.148438 -4.519531 10.820312 -4.6875 10.53125 -4.875 C 10.238281 -5.0625 9.929688 -5.253906 9.609375 -5.453125 C 9.296875 -5.660156 8.957031 -5.910156 8.59375 -6.203125 L 8.53125 -6.203125 C 7.976562 -6.835938 7.515625 -7.359375 7.140625 -7.765625 C 6.773438 -8.171875 6.460938 -8.53125 6.203125 -8.84375 C 5.941406 -9.15625 5.707031 -9.445312 5.5 -9.71875 C 5.300781 -10 5.078125 -10.304688 4.828125 -10.640625 C 3.828125 -11.785156 3.21875 -13.578125 3 -16.015625 C 2.957031 -16.460938 2.945312 -16.953125 2.96875 -17.484375 C 2.988281 -18.023438 3.023438 -18.550781 3.078125 -19.0625 C 3.128906 -19.582031 3.207031 -20.050781 3.3125 -20.46875 C 3.425781 -20.894531 3.539062 -21.238281 3.65625 -21.5 C 3.84375 -21.832031 3.972656 -22.222656 4.046875 -22.671875 C 4.046875 -22.816406 4.144531 -23.128906 4.34375 -23.609375 C 4.550781 -24.085938 4.789062 -24.601562 5.0625 -25.15625 C 5.34375 -25.71875 5.640625 -26.242188 5.953125 -26.734375 C 6.265625 -27.234375 6.535156 -27.613281 6.765625 -27.875 C 6.910156 -28.09375 7.046875 -28.296875 7.171875 -28.484375 C 7.304688 -28.671875 7.410156 -28.894531 7.484375 -29.15625 C 7.628906 -29.332031 7.773438 -29.519531 7.921875 -29.71875 C 8.066406 -29.925781 8.269531 -30.144531 8.53125 -30.375 C 8.863281 -30.632812 9.050781 -30.929688 9.09375 -31.265625 C 9.125 -31.410156 9.253906 -31.554688 9.484375 -31.703125 C 10.066406 -32.253906 10.878906 -32.769531 11.921875 -33.25 L 11.6875 -33.25 L 11.859375 -33.703125 L 12.296875 -33.703125 L 12.421875 -34.1875 L 12.75 -34.1875 C 13.78125 -33.96875 14.796875 -34.117188 15.796875 -34.640625 L 16.015625 -34.640625 C 16.535156 -34.492188 16.96875 -34.390625 17.3125 -34.328125 C 17.664062 -34.273438 18.046875 -34.25 18.453125 -34.25 C 19.003906 -34.25 19.660156 -34.164062 20.421875 -34 C 21.179688 -33.832031 21.875 -33.617188 22.5 -33.359375 C 22.90625 -33.179688 23.203125 -33.050781 23.390625 -32.96875 C 23.578125 -32.894531 23.6875 -32.859375 23.71875 -32.859375 L 23.9375 -32.859375 L 24.5 -32.421875 C 25.050781 -31.941406 25.4375 -31.703125 25.65625 -31.703125 L 25.71875 -31.703125 C 25.976562 -31.515625 26.195312 -31.363281 26.375 -31.25 C 26.5625 -31.144531 26.710938 -31.035156 26.828125 -30.921875 C 27.234375 -30.515625 27.535156 -30.253906 27.734375 -30.140625 C 27.941406 -30.035156 28.191406 -29.960938 28.484375 -29.921875 L 28.65625 -29.921875 C 29.28125 -29.296875 29.710938 -28.863281 29.953125 -28.625 C 30.191406 -28.382812 30.347656 -28.0625 30.421875 -27.65625 C 30.492188 -27.394531 30.613281 -27.078125 30.78125 -26.703125 C 30.945312 -26.335938 31.125 -25.898438 31.3125 -25.390625 C 31.238281 -25.273438 31.144531 -25.160156 31.03125 -25.046875 C 31.070312 -25.046875 31.09375 -25.007812 31.09375 -24.9375 C 31.09375 -24.863281 31.09375 -24.644531 31.09375 -24.28125 C 31.09375 -23.875 31.164062 -23.519531 31.3125 -23.21875 C 31.601562 -22.851562 31.734375 -22.46875 31.703125 -22.0625 Z M 25.65625 -14.078125 C 25.726562 -14.296875 25.789062 -14.632812 25.84375 -15.09375 C 25.90625 -15.5625 25.953125 -16.117188 25.984375 -16.765625 C 26.023438 -17.410156 26.035156 -18.09375 26.015625 -18.8125 C 26.003906 -19.53125 25.976562 -20.242188 25.9375 -20.953125 C 25.863281 -22.128906 25.675781 -23.097656 25.375 -23.859375 C 25.082031 -24.617188 24.734375 -25.332031 24.328125 -26 C 23.890625 -26.726562 23.539062 -27.222656 23.28125 -27.484375 C 23.019531 -27.742188 22.648438 -28.078125 22.171875 -28.484375 L 22.21875 -28.484375 C 21.519531 -28.890625 21.0625 -29.203125 20.84375 -29.421875 C 20.613281 -29.648438 20.425781 -29.765625 20.28125 -29.765625 C 20.09375 -29.765625 19.890625 -29.789062 19.671875 -29.84375 C 19.453125 -29.894531 19.234375 -29.941406 19.015625 -29.984375 L 18.84375 -29.984375 L 18.734375 -30.265625 C 18.691406 -30.296875 18.523438 -30.359375 18.234375 -30.453125 C 17.941406 -30.546875 17.71875 -30.648438 17.5625 -30.765625 C 17.414062 -30.835938 17.34375 -30.875 17.34375 -30.875 L 17.234375 -30.875 C 16.796875 -30.644531 16.375 -30.441406 15.96875 -30.265625 C 15.632812 -30.078125 15.289062 -29.898438 14.9375 -29.734375 C 14.582031 -29.566406 14.332031 -29.410156 14.1875 -29.265625 C 14.113281 -29.148438 13.984375 -29.019531 13.796875 -28.875 C 13.609375 -28.726562 13.390625 -28.5625 13.140625 -28.375 L 13.1875 -28.375 L 12.796875 -27.828125 L 12.75 -27.828125 L 12.140625 -27.328125 L 12.1875 -27.328125 C 11.894531 -26.804688 11.597656 -26.34375 11.296875 -25.9375 C 11.003906 -25.53125 10.765625 -25.179688 10.578125 -24.890625 C 10.328125 -24.515625 10.164062 -24.109375 10.09375 -23.671875 C 10.050781 -23.484375 10.007812 -23.332031 9.96875 -23.21875 C 9.9375 -23.113281 9.828125 -23.003906 9.640625 -22.890625 C 9.609375 -22.890625 9.570312 -22.804688 9.53125 -22.640625 C 9.5 -22.472656 9.484375 -22.296875 9.484375 -22.109375 C 9.441406 -21.929688 9.382812 -21.757812 9.3125 -21.59375 C 9.238281 -21.425781 9.164062 -21.210938 9.09375 -20.953125 C 9.019531 -20.804688 8.960938 -20.582031 8.921875 -20.28125 C 8.890625 -19.988281 8.890625 -19.65625 8.921875 -19.28125 C 8.960938 -18.988281 8.984375 -18.710938 8.984375 -18.453125 C 8.984375 -18.191406 8.945312 -17.894531 8.875 -17.5625 C 8.71875 -17.226562 8.71875 -16.914062 8.875 -16.625 C 8.90625 -16.4375 8.9375 -16.296875 8.96875 -16.203125 C 9.007812 -16.117188 8.992188 -15.984375 8.921875 -15.796875 C 8.847656 -15.535156 8.882812 -15.296875 9.03125 -15.078125 C 9.21875 -14.859375 9.289062 -14.632812 9.25 -14.40625 C 9.175781 -14.144531 9.253906 -13.941406 9.484375 -13.796875 L 9.53125 -13.796875 C 9.90625 -13.359375 10.273438 -12.785156 10.640625 -12.078125 L 10.53125 -12.078125 L 12.296875 -10.578125 L 12.359375 -10.578125 C 12.546875 -10.359375 12.675781 -10.210938 12.75 -10.140625 C 12.820312 -10.066406 12.914062 -10.050781 13.03125 -10.09375 C 13.46875 -10.195312 13.816406 -10.117188 14.078125 -9.859375 C 14.441406 -9.679688 14.828125 -9.523438 15.234375 -9.390625 C 15.640625 -9.265625 16.066406 -9.203125 16.515625 -9.203125 C 17.066406 -9.203125 17.492188 -9.128906 17.796875 -8.984375 L 17.84375 -8.984375 C 18.101562 -8.796875 18.390625 -8.691406 18.703125 -8.671875 C 19.015625 -8.648438 19.429688 -8.71875 19.953125 -8.875 C 20.359375 -9.019531 20.882812 -9.203125 21.53125 -9.421875 C 22.175781 -9.640625 22.738281 -9.9375 23.21875 -10.3125 C 23.40625 -10.457031 23.632812 -10.640625 23.90625 -10.859375 C 24.1875 -11.078125 24.550781 -11.335938 25 -11.640625 L 24.890625 -11.640625 C 25.066406 -12.160156 25.21875 -12.625 25.34375 -13.03125 C 25.476562 -13.4375 25.582031 -13.785156 25.65625 -14.078125 Z M 25.65625 -14.078125 "/></g></g></g><g fill="#000000" fill-opacity="1"><g transform="translate(70.216337, 49.407489)"><g><path d="M 12.75 -34.3125 C 12.851562 -34.195312 12.945312 -34.175781 13.03125 -34.25 C 13.0625 -34.289062 13.890625 -34.289062 15.515625 -34.25 C 16.296875 -34.207031 17.070312 -34.125 17.84375 -34 C 18.625 -33.875 19.34375 -33.726562 20 -33.5625 C 20.664062 -33.394531 21.238281 -33.207031 21.71875 -33 C 22.207031 -32.800781 22.539062 -32.609375 22.71875 -32.421875 C 22.90625 -32.234375 23.082031 -32.082031 23.25 -31.96875 C 23.414062 -31.863281 23.59375 -31.8125 23.78125 -31.8125 C 24.070312 -31.8125 24.363281 -31.664062 24.65625 -31.375 C 24.84375 -31.1875 25.070312 -30.960938 25.34375 -30.703125 C 25.625 -30.441406 25.910156 -30.171875 26.203125 -29.890625 C 26.503906 -29.617188 26.785156 -29.363281 27.046875 -29.125 C 27.304688 -28.882812 27.488281 -28.726562 27.59375 -28.65625 C 27.820312 -28.46875 28.046875 -28.253906 28.265625 -28.015625 C 28.484375 -27.773438 28.59375 -27.5625 28.59375 -27.375 C 28.59375 -27.15625 28.554688 -26.988281 28.484375 -26.875 C 28.378906 -26.695312 28.453125 -26.421875 28.703125 -26.046875 C 28.890625 -25.640625 29.117188 -25.03125 29.390625 -24.21875 C 29.671875 -23.40625 29.8125 -22.332031 29.8125 -21 C 29.8125 -19.519531 29.738281 -18.65625 29.59375 -18.40625 C 29.40625 -18 29.347656 -17.703125 29.421875 -17.515625 C 29.503906 -17.253906 29.453125 -17.015625 29.265625 -16.796875 C 29.191406 -16.722656 29.117188 -16.59375 29.046875 -16.40625 C 28.972656 -16.21875 28.878906 -16.015625 28.765625 -15.796875 C 28.691406 -15.578125 28.609375 -15.347656 28.515625 -15.109375 C 28.421875 -14.867188 28.28125 -14.632812 28.09375 -14.40625 C 27.945312 -14.21875 27.742188 -13.929688 27.484375 -13.546875 C 27.222656 -13.160156 26.945312 -12.671875 26.65625 -12.078125 C 25.8125 -11.078125 24.914062 -10.132812 23.96875 -9.25 C 23.03125 -8.363281 22.0625 -7.515625 21.0625 -6.703125 L 20.734375 -6.984375 C 20.285156 -6.503906 19.785156 -6.207031 19.234375 -6.09375 L 19.015625 -6.375 C 18.492188 -6.113281 18.078125 -5.910156 17.765625 -5.765625 C 17.453125 -5.617188 17.144531 -5.488281 16.84375 -5.375 C 16.550781 -5.300781 16.3125 -5.21875 16.125 -5.125 C 15.9375 -5.03125 15.769531 -5.019531 15.625 -5.09375 C 15.519531 -5.164062 15.375 -5.15625 15.1875 -5.0625 C 15 -4.976562 14.796875 -4.898438 14.578125 -4.828125 C 14.359375 -4.742188 14.125 -4.664062 13.875 -4.59375 C 13.632812 -4.519531 13.425781 -4.484375 13.25 -4.484375 C 12.769531 -4.484375 12.304688 -4.429688 11.859375 -4.328125 C 11.597656 -4.171875 11.347656 -4.082031 11.109375 -4.0625 C 10.867188 -4.050781 10.617188 -4.0625 10.359375 -4.09375 C 9.773438 -4.175781 9.351562 -4.140625 9.09375 -3.984375 C 8.757812 -3.765625 8.316406 -3.765625 7.765625 -3.984375 C 7.460938 -4.097656 7.191406 -4.191406 6.953125 -4.265625 C 6.710938 -4.335938 6.484375 -4.375 6.265625 -4.375 C 5.710938 -4.375 5.414062 -4.394531 5.375 -4.4375 C 5.300781 -4.46875 5.234375 -4.484375 5.171875 -4.484375 C 5.117188 -4.484375 5.054688 -4.503906 4.984375 -4.546875 C 5.941406 -4.546875 7.015625 -4.65625 8.203125 -4.875 L 7.921875 -5.375 L 7.09375 -5.703125 C 7.09375 -5.773438 7.082031 -5.835938 7.0625 -5.890625 C 7.039062 -5.953125 7.070312 -6.019531 7.15625 -6.09375 C 7.1875 -6.132812 6.890625 -6.726562 6.265625 -7.875 C 5.929688 -8.457031 5.679688 -8.941406 5.515625 -9.328125 C 5.347656 -9.722656 5.320312 -10.066406 5.4375 -10.359375 C 5.539062 -10.804688 5.554688 -11.210938 5.484375 -11.578125 C 5.410156 -11.765625 5.34375 -12.015625 5.28125 -12.328125 C 5.226562 -12.640625 5.164062 -13.054688 5.09375 -13.578125 C 5.019531 -14.054688 4.945312 -14.632812 4.875 -15.3125 C 4.800781 -16 4.742188 -16.769531 4.703125 -17.625 C 4.597656 -19.4375 4.4375 -21.632812 4.21875 -24.21875 C 4.101562 -25.550781 4 -26.640625 3.90625 -27.484375 C 3.8125 -28.335938 3.765625 -28.96875 3.765625 -29.375 C 3.691406 -29.707031 3.625 -30.007812 3.5625 -30.28125 C 3.507812 -30.5625 3.394531 -30.757812 3.21875 -30.875 C 2.914062 -31.164062 2.753906 -31.441406 2.734375 -31.703125 C 2.722656 -31.960938 2.789062 -32.164062 2.9375 -32.3125 C 2.976562 -32.382812 3.015625 -32.46875 3.046875 -32.5625 C 3.085938 -32.65625 3.144531 -32.773438 3.21875 -32.921875 L 3.546875 -32.96875 L 3.65625 -33.578125 L 4.328125 -33.96875 C 4.429688 -34.007812 4.554688 -34.019531 4.703125 -34 C 4.859375 -33.976562 5.082031 -33.929688 5.375 -33.859375 C 5.894531 -33.566406 6.742188 -33.566406 7.921875 -33.859375 C 8.515625 -34.003906 9.066406 -34.09375 9.578125 -34.125 C 10.097656 -34.164062 10.5625 -34.1875 10.96875 -34.1875 C 11.707031 -34.15625 12.171875 -34.175781 12.359375 -34.25 C 12.429688 -34.289062 12.5625 -34.3125 12.75 -34.3125 Z M 10.3125 -29.59375 C 10.238281 -29.519531 10.203125 -29.460938 10.203125 -29.421875 C 10.203125 -29.316406 10.367188 -29.039062 10.703125 -28.59375 C 11.023438 -28.082031 11.003906 -27.492188 10.640625 -26.828125 C 10.273438 -26.117188 10.070312 -25.375 10.03125 -24.59375 C 9.988281 -23.820312 10.0625 -22.957031 10.25 -22 C 10.394531 -21.039062 10.378906 -20.359375 10.203125 -19.953125 C 9.941406 -19.578125 9.882812 -18.929688 10.03125 -18.015625 C 10.21875 -17.085938 10.28125 -16.179688 10.21875 -15.296875 C 10.164062 -14.410156 10.082031 -13.707031 9.96875 -13.1875 C 9.863281 -12.707031 9.847656 -12.191406 9.921875 -11.640625 C 9.953125 -11.234375 9.859375 -10.921875 9.640625 -10.703125 C 9.453125 -10.546875 9.378906 -10.023438 9.421875 -9.140625 C 9.460938 -8.253906 9.351562 -7.703125 9.09375 -7.484375 C 8.832031 -7.265625 8.703125 -7.023438 8.703125 -6.765625 C 8.703125 -6.503906 8.59375 -5.984375 8.375 -5.203125 C 8.550781 -5.128906 8.703125 -5.070312 8.828125 -5.03125 C 8.960938 -5 9.066406 -4.984375 9.140625 -4.984375 C 9.253906 -4.984375 9.457031 -5.039062 9.75 -5.15625 C 10.050781 -5.269531 10.457031 -5.414062 10.96875 -5.59375 C 11.9375 -5.925781 12.953125 -6.378906 14.015625 -6.953125 C 15.085938 -7.523438 15.882812 -8.015625 16.40625 -8.421875 C 16.695312 -8.640625 17.019531 -8.878906 17.375 -9.140625 C 17.726562 -9.398438 18.144531 -9.734375 18.625 -10.140625 C 19.175781 -10.835938 19.617188 -11.335938 19.953125 -11.640625 C 20.097656 -11.785156 20.269531 -11.976562 20.46875 -12.21875 C 20.675781 -12.457031 20.925781 -12.78125 21.21875 -13.1875 C 21.519531 -13.519531 21.816406 -13.960938 22.109375 -14.515625 C 22.410156 -15.078125 22.742188 -15.722656 23.109375 -16.453125 C 23.398438 -17.191406 23.628906 -17.859375 23.796875 -18.453125 C 23.960938 -19.046875 24.09375 -19.570312 24.1875 -20.03125 C 24.28125 -20.5 24.328125 -20.925781 24.328125 -21.3125 C 24.328125 -21.695312 24.3125 -22.078125 24.28125 -22.453125 C 24.125 -23.109375 23.914062 -23.710938 23.65625 -24.265625 C 23.40625 -24.828125 23.128906 -25.253906 22.828125 -25.546875 C 22.679688 -25.734375 22.5 -25.960938 22.28125 -26.234375 C 22.0625 -26.515625 21.800781 -26.859375 21.5 -27.265625 C 21.28125 -27.335938 21.085938 -27.445312 20.921875 -27.59375 C 20.753906 -27.75 20.597656 -27.863281 20.453125 -27.9375 C 20.335938 -28.007812 20.140625 -28.097656 19.859375 -28.203125 C 19.585938 -28.316406 19.3125 -28.425781 19.03125 -28.53125 C 18.757812 -28.644531 18.492188 -28.738281 18.234375 -28.8125 C 17.972656 -28.894531 17.785156 -28.9375 17.671875 -28.9375 C 17.523438 -28.894531 17.25 -28.910156 16.84375 -28.984375 C 16.476562 -29.054688 15.941406 -29.09375 15.234375 -29.09375 C 14.492188 -29.09375 13.800781 -29.109375 13.15625 -29.140625 C 12.507812 -29.179688 11.613281 -29.296875 10.46875 -29.484375 Z M 10.3125 -29.59375 "/></g></g></g><g fill="#000000" fill-opacity="1"><g transform="translate(106.677693, 49.407489)"><g><path d="M 27.484375 -31.421875 C 27.554688 -31.316406 27.671875 -31.1875 27.828125 -31.03125 C 27.597656 -30.769531 27.335938 -30.679688 27.046875 -30.765625 C 26.859375 -30.796875 26.691406 -30.738281 26.546875 -30.59375 C 26.472656 -30.519531 26.398438 -30.40625 26.328125 -30.25 C 26.253906 -30.101562 26.171875 -29.957031 26.078125 -29.8125 C 25.984375 -29.664062 25.867188 -29.535156 25.734375 -29.421875 C 25.609375 -29.316406 25.472656 -29.28125 25.328125 -29.3125 C 24.992188 -29.3125 24.675781 -29.289062 24.375 -29.25 C 24.082031 -29.21875 23.789062 -29.1875 23.5 -29.15625 C 22.945312 -29.039062 22.300781 -28.984375 21.5625 -28.984375 L 19.625 -28.8125 C 19.320312 -28.738281 19.132812 -28.679688 19.0625 -28.640625 C 18.988281 -28.609375 18.84375 -28.628906 18.625 -28.703125 C 18.4375 -28.703125 18.238281 -28.679688 18.03125 -28.640625 C 17.832031 -28.609375 17.625 -28.578125 17.40625 -28.546875 C 17 -28.429688 16.351562 -28.375 15.46875 -28.375 C 15.238281 -28.375 15.066406 -28.375 14.953125 -28.375 C 14.847656 -28.375 14.765625 -28.382812 14.703125 -28.40625 C 14.648438 -28.425781 14.585938 -28.441406 14.515625 -28.453125 C 14.441406 -28.472656 14.3125 -28.503906 14.125 -28.546875 C 13.71875 -28.578125 13.285156 -28.617188 12.828125 -28.671875 C 12.367188 -28.734375 11.84375 -28.78125 11.25 -28.8125 L 10.8125 -28.265625 C 10.582031 -27.972656 10.441406 -27.648438 10.390625 -27.296875 C 10.335938 -26.941406 10.398438 -26.488281 10.578125 -25.9375 C 10.691406 -25.3125 10.675781 -24.925781 10.53125 -24.78125 C 10.5625 -24.78125 10.597656 -24.664062 10.640625 -24.4375 C 10.679688 -24.21875 10.71875 -23.953125 10.75 -23.640625 C 10.789062 -23.328125 10.816406 -23.019531 10.828125 -22.71875 C 10.847656 -22.425781 10.84375 -22.207031 10.8125 -22.0625 C 10.695312 -21.539062 10.609375 -21.242188 10.546875 -21.171875 C 10.492188 -21.097656 10.488281 -21.039062 10.53125 -21 L 10.640625 -20.609375 C 11.859375 -20.285156 12.707031 -20.066406 13.1875 -19.953125 C 13.488281 -19.878906 13.796875 -19.796875 14.109375 -19.703125 C 14.421875 -19.609375 14.757812 -19.503906 15.125 -19.390625 C 15.832031 -19.171875 16.679688 -18.875 17.671875 -18.5 C 18.671875 -18.132812 19.875 -17.914062 21.28125 -17.84375 C 22.6875 -17.769531 23.425781 -17.675781 23.5 -17.5625 C 23.53125 -17.414062 23.625 -17.304688 23.78125 -17.234375 C 23.707031 -17.203125 23.601562 -17.164062 23.46875 -17.125 C 23.34375 -17.082031 23.222656 -17.046875 23.109375 -17.015625 C 22.960938 -16.941406 22.773438 -16.707031 22.546875 -16.3125 C 22.328125 -15.925781 22.070312 -15.695312 21.78125 -15.625 C 21.445312 -15.550781 21.101562 -15.492188 20.75 -15.453125 C 20.40625 -15.421875 20.046875 -15.367188 19.671875 -15.296875 C 18.972656 -15.035156 18.179688 -15.015625 17.296875 -15.234375 C 16.847656 -15.347656 16.4375 -15.394531 16.0625 -15.375 C 15.695312 -15.363281 15.367188 -15.316406 15.078125 -15.234375 C 14.929688 -15.203125 14.847656 -15.164062 14.828125 -15.125 C 14.804688 -15.09375 14.785156 -15.078125 14.765625 -15.078125 C 14.753906 -15.078125 14.726562 -15.078125 14.6875 -15.078125 C 14.644531 -15.078125 14.550781 -15.113281 14.40625 -15.1875 C 14.070312 -15.300781 13.75 -15.363281 13.4375 -15.375 C 13.125 -15.394531 12.820312 -15.40625 12.53125 -15.40625 C 11.894531 -15.332031 11.117188 -15.332031 10.203125 -15.40625 C 10.160156 -15.113281 10.140625 -14.875 10.140625 -14.6875 C 10.140625 -14.5 10.125 -14.332031 10.09375 -14.1875 C 10.050781 -13.894531 10.085938 -13.359375 10.203125 -12.578125 C 10.234375 -12.171875 10.265625 -11.789062 10.296875 -11.4375 C 10.335938 -11.09375 10.320312 -10.550781 10.25 -9.8125 C 10.21875 -9.59375 10.203125 -9.320312 10.203125 -9 C 10.203125 -8.6875 10.21875 -8.492188 10.25 -8.421875 C 10.320312 -8.273438 10.414062 -8.164062 10.53125 -8.09375 C 10.96875 -7.90625 11.398438 -7.765625 11.828125 -7.671875 C 12.253906 -7.578125 12.65625 -7.492188 13.03125 -7.421875 C 13.394531 -7.347656 13.875 -7.273438 14.46875 -7.203125 C 15.0625 -7.128906 15.695312 -7.0625 16.375 -7 C 17.0625 -6.945312 17.734375 -6.910156 18.390625 -6.890625 C 19.054688 -6.878906 19.632812 -6.875 20.125 -6.875 C 21.082031 -6.875 21.800781 -6.898438 22.28125 -6.953125 C 22.757812 -7.003906 23.332031 -7.109375 24 -7.265625 L 24.15625 -6.984375 L 23.609375 -5.265625 C 23.535156 -5.148438 23.429688 -5.070312 23.296875 -5.03125 C 23.171875 -5 23.050781 -4.96875 22.9375 -4.9375 C 22.789062 -4.894531 22.613281 -4.851562 22.40625 -4.8125 C 22.207031 -4.78125 21.941406 -4.742188 21.609375 -4.703125 C 21.242188 -4.628906 20.894531 -4.535156 20.5625 -4.421875 C 20.226562 -4.316406 19.914062 -4.191406 19.625 -4.046875 C 18.988281 -3.710938 17.84375 -3.582031 16.1875 -3.65625 C 15.375 -3.695312 14.53125 -3.742188 13.65625 -3.796875 C 12.789062 -3.847656 11.988281 -3.898438 11.25 -3.953125 C 10.507812 -4.015625 9.851562 -4.070312 9.28125 -4.125 C 8.707031 -4.1875 8.328125 -4.234375 8.140625 -4.265625 C 7.921875 -4.304688 7.71875 -4.34375 7.53125 -4.375 C 7.351562 -4.414062 7.1875 -4.472656 7.03125 -4.546875 L 6.421875 -5.59375 C 5.796875 -5.894531 5.222656 -6.359375 4.703125 -6.984375 C 4.484375 -7.421875 4.335938 -7.742188 4.265625 -7.953125 C 4.191406 -8.160156 4.191406 -8.410156 4.265625 -8.703125 C 4.304688 -8.816406 4.332031 -8.925781 4.34375 -9.03125 C 4.363281 -9.144531 4.375 -9.296875 4.375 -9.484375 C 4.34375 -9.734375 4.332031 -9.90625 4.34375 -10 C 4.363281 -10.09375 4.410156 -10.25 4.484375 -10.46875 C 4.410156 -10.539062 4.375 -10.617188 4.375 -10.703125 C 4.34375 -10.734375 4.34375 -11.023438 4.375 -11.578125 C 4.375 -11.804688 4.363281 -12.007812 4.34375 -12.1875 C 4.332031 -12.375 4.304688 -12.5625 4.265625 -12.75 C 4.191406 -12.96875 4.191406 -13.1875 4.265625 -13.40625 C 4.335938 -13.59375 4.320312 -13.796875 4.21875 -14.015625 C 4.101562 -14.242188 4.046875 -14.707031 4.046875 -15.40625 C 4.046875 -16.144531 4.117188 -16.679688 4.265625 -17.015625 C 4.410156 -17.273438 4.445312 -17.535156 4.375 -17.796875 C 4.269531 -18.015625 4.207031 -18.332031 4.1875 -18.75 C 4.164062 -19.175781 4.191406 -19.554688 4.265625 -19.890625 C 4.335938 -20.191406 4.335938 -20.507812 4.265625 -20.84375 C 4.234375 -21.132812 4.234375 -21.351562 4.265625 -21.5 L 4.484375 -22.28125 L 4.21875 -22.5625 C 4.320312 -22.78125 4.394531 -22.90625 4.4375 -22.9375 C 4.46875 -22.976562 4.46875 -23.550781 4.4375 -24.65625 C 4.394531 -25.21875 4.382812 -25.738281 4.40625 -26.21875 C 4.425781 -26.695312 4.453125 -27.140625 4.484375 -27.546875 C 4.554688 -28.390625 4.539062 -29.109375 4.4375 -29.703125 C 4.289062 -30.410156 4.234375 -30.875 4.265625 -31.09375 C 4.304688 -31.28125 4.269531 -31.460938 4.15625 -31.640625 C 3.96875 -31.753906 3.820312 -32.125 3.71875 -32.75 C 4.082031 -33.195312 4.597656 -33.421875 5.265625 -33.421875 L 5.4375 -33.96875 L 5.9375 -34.140625 L 7.875 -33.921875 C 8.28125 -33.878906 8.628906 -33.914062 8.921875 -34.03125 C 9.035156 -34.0625 9.257812 -34.085938 9.59375 -34.109375 C 9.925781 -34.128906 10.296875 -34.117188 10.703125 -34.078125 C 11.109375 -34.046875 11.515625 -34.007812 11.921875 -33.96875 C 12.328125 -33.9375 12.65625 -33.882812 12.90625 -33.8125 C 13.394531 -33.65625 14 -33.519531 14.71875 -33.40625 C 15.4375 -33.300781 16.109375 -33.210938 16.734375 -33.140625 C 17.035156 -33.109375 17.359375 -33.070312 17.703125 -33.03125 C 18.054688 -32.988281 18.4375 -32.84375 18.84375 -32.59375 C 19.0625 -32.4375 19.445312 -32.300781 20 -32.1875 C 20.5625 -32.082031 21.144531 -32.003906 21.75 -31.953125 C 22.363281 -31.898438 22.957031 -31.875 23.53125 -31.875 C 24.101562 -31.875 24.554688 -31.875 24.890625 -31.875 C 25.179688 -31.90625 25.460938 -31.910156 25.734375 -31.890625 C 26.015625 -31.878906 26.304688 -31.851562 26.609375 -31.8125 C 27.085938 -31.695312 27.378906 -31.566406 27.484375 -31.421875 Z M 27.484375 -31.421875 "/></g></g></g><g fill="#000000" fill-opacity="1"><g transform="translate(136.988348, 49.407489)"><g><path d="M 11.75 -34.359375 C 11.894531 -34.359375 12.003906 -34.378906 12.078125 -34.421875 C 12.117188 -34.421875 12.460938 -34.410156 13.109375 -34.390625 C 13.753906 -34.367188 14.53125 -34.347656 15.4375 -34.328125 C 16.34375 -34.316406 17.285156 -34.28125 18.265625 -34.21875 C 19.242188 -34.164062 20.066406 -34.101562 20.734375 -34.03125 C 21.429688 -33.914062 22 -33.800781 22.4375 -33.6875 C 22.882812 -33.582031 23.238281 -33.492188 23.5 -33.421875 C 23.789062 -33.234375 24.03125 -33.109375 24.21875 -33.046875 C 24.40625 -32.992188 24.570312 -32.953125 24.71875 -32.921875 C 25.050781 -32.804688 25.328125 -32.675781 25.546875 -32.53125 C 25.660156 -32.457031 25.804688 -32.351562 25.984375 -32.21875 C 26.171875 -32.09375 26.394531 -31.921875 26.65625 -31.703125 L 27.9375 -30.421875 L 27.328125 -29.703125 L 27.703125 -29.265625 C 27.742188 -29.191406 27.707031 -28.691406 27.59375 -27.765625 C 27.488281 -26.878906 27.367188 -26.285156 27.234375 -25.984375 C 27.109375 -25.691406 26.898438 -25.34375 26.609375 -24.9375 L 26 -24.78125 L 24.390625 -22.9375 C 24.203125 -22.757812 23.988281 -22.613281 23.75 -22.5 C 23.507812 -22.382812 23.257812 -22.289062 23 -22.21875 L 22.609375 -21.890625 L 21.78125 -21.609375 C 21.1875 -20.722656 20.539062 -20.003906 19.84375 -19.453125 L 18.34375 -18.84375 L 18.0625 -18.671875 L 16.515625 -17.671875 L 15.90625 -17.453125 C 16.195312 -17.085938 16.453125 -16.789062 16.671875 -16.5625 C 16.898438 -16.34375 17.070312 -16.160156 17.1875 -16.015625 C 17.4375 -15.753906 17.765625 -15.273438 18.171875 -14.578125 C 18.503906 -13.910156 18.945312 -13.175781 19.5 -12.375 C 20.0625 -11.582031 20.582031 -11.023438 21.0625 -10.703125 C 21.582031 -10.367188 21.894531 -10.050781 22 -9.75 C 22.070312 -9.414062 22.164062 -9.234375 22.28125 -9.203125 C 22.3125 -9.128906 22.347656 -9.0625 22.390625 -9 C 22.429688 -8.945312 22.410156 -8.882812 22.328125 -8.8125 C 22.328125 -8.738281 22.398438 -8.617188 22.546875 -8.453125 C 22.703125 -8.285156 22.898438 -8.085938 23.140625 -7.859375 C 23.378906 -7.640625 23.632812 -7.410156 23.90625 -7.171875 C 24.1875 -6.929688 24.457031 -6.738281 24.71875 -6.59375 C 25.238281 -6.257812 25.679688 -5.890625 26.046875 -5.484375 C 26.421875 -5.078125 26.644531 -4.765625 26.71875 -4.546875 C 26.71875 -4.429688 26.753906 -4.191406 26.828125 -3.828125 L 26.609375 -3.65625 C 26.203125 -3.726562 25.832031 -3.800781 25.5 -3.875 C 25.164062 -3.945312 24.679688 -4.171875 24.046875 -4.546875 C 23.460938 -4.835938 23.019531 -5.019531 22.71875 -5.09375 L 21.953125 -5.203125 L 21.5625 -5.484375 L 19.234375 -6.984375 C 18.566406 -7.535156 17.945312 -8.003906 17.375 -8.390625 C 16.800781 -8.785156 16.332031 -9.109375 15.96875 -9.359375 C 15.113281 -9.847656 14.222656 -10.515625 13.296875 -11.359375 C 12.859375 -11.804688 12.453125 -12.175781 12.078125 -12.46875 C 11.710938 -12.757812 11.367188 -13.023438 11.046875 -13.265625 C 10.734375 -13.515625 10.421875 -13.757812 10.109375 -14 C 9.796875 -14.238281 9.472656 -14.503906 9.140625 -14.796875 C 8.921875 -14.535156 8.773438 -14.367188 8.703125 -14.296875 C 8.660156 -14.222656 8.617188 -14.082031 8.578125 -13.875 C 8.546875 -13.675781 8.492188 -13.429688 8.421875 -13.140625 C 8.347656 -12.804688 8.253906 -12.394531 8.140625 -11.90625 C 8.035156 -11.425781 7.925781 -11.0625 7.8125 -10.8125 C 7.625 -10.507812 7.492188 -10.238281 7.421875 -10 C 7.347656 -9.757812 7.273438 -9.507812 7.203125 -9.25 C 7.128906 -9 7.070312 -8.769531 7.03125 -8.5625 C 7 -8.363281 6.945312 -8.1875 6.875 -8.03125 C 6.726562 -7.695312 6.617188 -7.347656 6.546875 -6.984375 C 6.503906 -6.796875 6.445312 -6.632812 6.375 -6.5 C 6.300781 -6.375 6.242188 -6.222656 6.203125 -6.046875 C 6.171875 -5.859375 6.117188 -5.695312 6.046875 -5.5625 C 5.972656 -5.4375 5.9375 -5.316406 5.9375 -5.203125 C 5.9375 -4.953125 5.785156 -4.625 5.484375 -4.21875 L 3.9375 -3.71875 C 3.894531 -3.75 3.875 -3.820312 3.875 -3.9375 C 3.875 -3.96875 3.910156 -4.007812 3.984375 -4.0625 C 4.054688 -4.125 4.148438 -4.25 4.265625 -4.4375 C 4.335938 -4.726562 4.394531 -5.226562 4.4375 -5.9375 C 4.320312 -6.664062 4.335938 -7.363281 4.484375 -8.03125 C 4.597656 -8.769531 4.597656 -9.546875 4.484375 -10.359375 C 4.410156 -10.765625 4.390625 -11.289062 4.421875 -11.9375 C 4.460938 -12.582031 4.578125 -13.222656 4.765625 -13.859375 C 4.835938 -14.410156 4.898438 -14.867188 4.953125 -15.234375 C 5.015625 -15.609375 4.972656 -15.925781 4.828125 -16.1875 C 4.671875 -16.476562 4.6875 -16.789062 4.875 -17.125 C 5.0625 -17.414062 5.132812 -17.691406 5.09375 -17.953125 C 5.019531 -18.210938 5.078125 -18.4375 5.265625 -18.625 C 5.453125 -18.882812 5.453125 -19.085938 5.265625 -19.234375 C 5.046875 -19.378906 5 -19.503906 5.125 -19.609375 C 5.257812 -19.722656 5.328125 -19.96875 5.328125 -20.34375 C 5.328125 -20.675781 5.34375 -21.046875 5.375 -21.453125 C 5.414062 -21.859375 5.472656 -22.300781 5.546875 -22.78125 C 5.578125 -23.21875 5.617188 -23.738281 5.671875 -24.34375 C 5.734375 -24.957031 5.769531 -25.578125 5.78125 -26.203125 C 5.800781 -26.835938 5.789062 -27.429688 5.75 -27.984375 C 5.71875 -28.535156 5.648438 -28.960938 5.546875 -29.265625 C 5.316406 -29.816406 4.984375 -30.273438 4.546875 -30.640625 C 4.171875 -30.941406 3.890625 -31.191406 3.703125 -31.390625 C 3.523438 -31.597656 3.210938 -31.976562 2.765625 -32.53125 L 3.15625 -33.140625 L 3.828125 -32.921875 C 4.234375 -33.140625 4.523438 -33.285156 4.703125 -33.359375 C 4.890625 -33.429688 5.148438 -33.453125 5.484375 -33.421875 C 5.703125 -33.347656 6.3125 -33.457031 7.3125 -33.75 C 7.71875 -33.820312 8.125 -33.894531 8.53125 -33.96875 C 8.9375 -34.039062 9.289062 -34.078125 9.59375 -34.078125 C 10.175781 -34.046875 10.585938 -34.035156 10.828125 -34.046875 C 11.066406 -34.066406 11.375 -34.171875 11.75 -34.359375 Z M 9.09375 -31.09375 L 9.09375 -30.765625 C 9.09375 -30.679688 9.238281 -30.492188 9.53125 -30.203125 C 9.644531 -30.054688 9.820312 -30 10.0625 -30.03125 C 10.300781 -30.070312 10.421875 -29.984375 10.421875 -29.765625 C 10.421875 -29.648438 10.503906 -29.546875 10.671875 -29.453125 C 10.835938 -29.359375 11.03125 -29.253906 11.25 -29.140625 C 11.46875 -29.035156 11.675781 -28.914062 11.875 -28.78125 C 12.082031 -28.65625 12.242188 -28.519531 12.359375 -28.375 C 12.578125 -28.082031 12.664062 -27.664062 12.625 -27.125 C 12.59375 -26.59375 12.492188 -26.03125 12.328125 -25.4375 C 12.160156 -24.84375 11.984375 -24.273438 11.796875 -23.734375 C 11.617188 -23.203125 11.507812 -22.828125 11.46875 -22.609375 C 11.46875 -22.390625 11.445312 -22.125 11.40625 -21.8125 C 11.375 -21.5 11.34375 -21.140625 11.3125 -20.734375 L 12.859375 -19.171875 L 14.078125 -18.90625 C 15.253906 -19.96875 16.140625 -20.648438 16.734375 -20.953125 C 16.992188 -21.097656 17.207031 -21.234375 17.375 -21.359375 C 17.539062 -21.492188 17.625 -21.65625 17.625 -21.84375 C 17.65625 -22.207031 17.953125 -22.570312 18.515625 -22.9375 C 18.878906 -23.382812 19.046875 -23.738281 19.015625 -24 C 18.859375 -24.332031 19.0625 -24.71875 19.625 -25.15625 C 20.132812 -25.675781 20.410156 -26.046875 20.453125 -26.265625 C 20.484375 -26.566406 20.628906 -26.898438 20.890625 -27.265625 C 21.109375 -27.640625 21.21875 -27.992188 21.21875 -28.328125 C 21.1875 -28.472656 21.148438 -28.609375 21.109375 -28.734375 C 21.078125 -28.867188 21.039062 -28.988281 21 -29.09375 C 20.851562 -29.207031 20.648438 -29.46875 20.390625 -29.875 C 19.953125 -30.019531 19.566406 -30.1875 19.234375 -30.375 C 18.929688 -30.519531 18.363281 -30.628906 17.53125 -30.703125 C 16.707031 -30.773438 15.757812 -30.796875 14.6875 -30.765625 C 14.164062 -30.765625 13.710938 -30.765625 13.328125 -30.765625 C 12.941406 -30.765625 12.640625 -30.742188 12.421875 -30.703125 C 11.828125 -30.585938 11.398438 -30.585938 11.140625 -30.703125 C 10.953125 -30.742188 10.71875 -30.800781 10.4375 -30.875 C 10.164062 -30.945312 9.847656 -31.019531 9.484375 -31.09375 Z M 9.09375 -31.09375 "/></g></g></g><g fill="#000000" fill-opacity="1"><g transform="translate(169.626292, 49.407489)"><g><path d="M -0.828125 -34.578125 C -0.566406 -34.503906 -0.363281 -34.488281 -0.21875 -34.53125 C -0.03125 -34.601562 0.28125 -34.546875 0.71875 -34.359375 C 1.125 -34.210938 1.585938 -34.140625 2.109375 -34.140625 C 2.328125 -34.097656 2.546875 -34.054688 2.765625 -34.015625 C 2.992188 -33.984375 3.195312 -33.953125 3.375 -33.921875 C 3.707031 -33.804688 4.003906 -33.785156 4.265625 -33.859375 C 4.335938 -33.828125 4.398438 -33.800781 4.453125 -33.78125 C 4.515625 -33.757812 4.5625 -33.734375 4.59375 -33.703125 C 4.632812 -33.660156 4.882812 -33.582031 5.34375 -33.46875 C 5.8125 -33.363281 6.359375 -33.234375 6.984375 -33.078125 C 7.609375 -32.929688 8.257812 -32.800781 8.9375 -32.6875 C 9.625 -32.582031 10.210938 -32.53125 10.703125 -32.53125 C 11.140625 -32.5 11.578125 -32.460938 12.015625 -32.421875 C 12.460938 -32.378906 12.925781 -32.320312 13.40625 -32.25 C 14.375 -32.144531 15.78125 -32.144531 17.625 -32.25 C 19.4375 -32.363281 20.820312 -32.253906 21.78125 -31.921875 C 22.738281 -31.585938 23.347656 -31.515625 23.609375 -31.703125 C 23.867188 -31.847656 24.179688 -31.863281 24.546875 -31.75 C 24.703125 -31.644531 24.890625 -31.5625 25.109375 -31.5 C 25.328125 -31.445312 25.582031 -31.382812 25.875 -31.3125 L 25.875 -30.59375 L 25.046875 -29.984375 L 24.828125 -29.3125 C 24.347656 -28.832031 24.035156 -28.539062 23.890625 -28.4375 C 23.628906 -28.207031 23.390625 -28.128906 23.171875 -28.203125 C 23.097656 -28.242188 22.992188 -28.253906 22.859375 -28.234375 C 22.734375 -28.210938 22.613281 -28.1875 22.5 -28.15625 C 22.164062 -28.082031 21.648438 -28.023438 20.953125 -27.984375 L 20.734375 -27.703125 L 15.6875 -26.375 C 15.6875 -25.96875 15.722656 -25.65625 15.796875 -25.4375 C 15.753906 -25.320312 15.742188 -25.21875 15.765625 -25.125 C 15.785156 -25.039062 15.8125 -24.925781 15.84375 -24.78125 C 15.882812 -24.59375 15.914062 -24.359375 15.9375 -24.078125 C 15.957031 -23.804688 15.925781 -23.46875 15.84375 -23.0625 C 15.738281 -22.65625 15.65625 -22.070312 15.59375 -21.3125 C 15.539062 -20.550781 15.476562 -19.632812 15.40625 -18.5625 C 15.21875 -16.3125 14.976562 -14.613281 14.6875 -13.46875 C 14.3125 -12.175781 14.109375 -11.007812 14.078125 -9.96875 C 14.003906 -8.90625 13.851562 -8.007812 13.625 -7.28125 C 13.40625 -6.5625 13.148438 -5.945312 12.859375 -5.4375 C 12.566406 -4.914062 12.304688 -4.539062 12.078125 -4.3125 C 11.859375 -4.09375 11.472656 -3.726562 10.921875 -3.21875 C 10.328125 -3.320312 9.804688 -3.613281 9.359375 -4.09375 L 8.921875 -4.21875 C 8.992188 -4.4375 9.03125 -4.582031 9.03125 -4.65625 C 9 -4.769531 9.035156 -4.914062 9.140625 -5.09375 C 9.210938 -5.164062 9.226562 -5.25 9.1875 -5.34375 C 9.15625 -5.4375 9.125 -5.519531 9.09375 -5.59375 C 9.164062 -5.707031 9.253906 -5.820312 9.359375 -5.9375 C 9.398438 -5.9375 9.46875 -6.179688 9.5625 -6.671875 C 9.65625 -7.171875 9.742188 -7.742188 9.828125 -8.390625 C 9.921875 -9.035156 9.988281 -9.660156 10.03125 -10.265625 C 10.070312 -10.878906 10.050781 -11.300781 9.96875 -11.53125 C 9.675781 -12.414062 9.675781 -13.375 9.96875 -14.40625 C 10.082031 -14.882812 10.046875 -15.328125 9.859375 -15.734375 C 9.710938 -16.109375 9.75 -16.609375 9.96875 -17.234375 C 10.082031 -17.859375 10.082031 -18.300781 9.96875 -18.5625 C 9.820312 -18.820312 9.75 -19.117188 9.75 -19.453125 C 9.789062 -19.640625 9.8125 -19.820312 9.8125 -20 C 9.8125 -20.1875 9.8125 -20.410156 9.8125 -20.671875 C 9.769531 -20.890625 9.726562 -21.238281 9.6875 -21.71875 C 9.65625 -22.207031 9.628906 -22.707031 9.609375 -23.21875 C 9.597656 -23.738281 9.59375 -24.191406 9.59375 -24.578125 C 9.59375 -24.960938 9.609375 -25.191406 9.640625 -25.265625 C 9.640625 -25.378906 9.695312 -25.472656 9.8125 -25.546875 L 9.640625 -26.109375 C 9.609375 -26.179688 9.570312 -26.28125 9.53125 -26.40625 C 9.5 -26.539062 9.484375 -26.71875 9.484375 -26.9375 C 9.398438 -27.125 9.320312 -27.28125 9.25 -27.40625 C 9.175781 -27.53125 9.066406 -27.671875 8.921875 -27.828125 C 8.554688 -27.640625 8.242188 -27.628906 7.984375 -27.796875 C 7.722656 -27.960938 7.535156 -28.0625 7.421875 -28.09375 C 7.015625 -28.164062 6.757812 -28.28125 6.65625 -28.4375 C 6.46875 -28.507812 6.265625 -28.523438 6.046875 -28.484375 C 5.859375 -28.378906 5.671875 -28.378906 5.484375 -28.484375 L 4.65625 -28.65625 C 4.28125 -28.65625 4.003906 -28.75 3.828125 -28.9375 C 3.679688 -29.007812 3.5625 -29.070312 3.46875 -29.125 C 3.375 -29.175781 3.269531 -29.222656 3.15625 -29.265625 C 3.082031 -29.296875 2.976562 -29.320312 2.84375 -29.34375 C 2.71875 -29.363281 2.601562 -29.410156 2.5 -29.484375 C 2.382812 -29.597656 2.347656 -29.707031 2.390625 -29.8125 C 2.492188 -29.851562 2.398438 -29.984375 2.109375 -30.203125 C 1.960938 -30.316406 1.804688 -30.4375 1.640625 -30.5625 C 1.472656 -30.695312 1.296875 -30.875 1.109375 -31.09375 L -0.671875 -32.484375 L -1 -34.359375 Z M -0.828125 -34.578125 "/></g></g></g><g fill="#000000" fill-opacity="1"><g transform="translate(197.831311, 49.407489)"><g><path d="M 31.703125 -22.0625 C 31.628906 -21.726562 31.628906 -21.0625 31.703125 -20.0625 C 31.734375 -19.65625 31.710938 -19.285156 31.640625 -18.953125 C 31.566406 -18.617188 31.476562 -18.304688 31.375 -18.015625 C 31.300781 -17.828125 31.21875 -17.628906 31.125 -17.421875 C 31.03125 -17.222656 30.945312 -16.957031 30.875 -16.625 C 30.832031 -16.4375 30.71875 -16.101562 30.53125 -15.625 C 30.351562 -15.144531 30.097656 -14.460938 29.765625 -13.578125 L 29.59375 -13.578125 L 29.046875 -13.359375 L 29.15625 -13.359375 C 28.820312 -12.910156 28.503906 -12.410156 28.203125 -11.859375 C 27.910156 -11.304688 27.632812 -10.769531 27.375 -10.25 L 27.265625 -10.25 L 26.765625 -9.859375 C 26.472656 -9.566406 26.175781 -9.21875 25.875 -8.8125 C 25.582031 -8.40625 25.234375 -7.976562 24.828125 -7.53125 C 24.015625 -6.613281 23.109375 -5.882812 22.109375 -5.34375 C 21.109375 -4.8125 20.128906 -4.472656 19.171875 -4.328125 L 18.953125 -3.828125 L 19.125 -3.4375 L 18.953125 -3.4375 C 18.765625 -3.4375 18.648438 -3.4375 18.609375 -3.4375 C 18.578125 -3.4375 18.523438 -3.398438 18.453125 -3.328125 C 18.378906 -3.285156 18.238281 -3.253906 18.03125 -3.234375 C 17.832031 -3.222656 17.585938 -3.253906 17.296875 -3.328125 C 17.035156 -3.359375 16.773438 -3.390625 16.515625 -3.421875 C 16.253906 -3.460938 15.976562 -3.484375 15.6875 -3.484375 C 14.90625 -3.410156 13.976562 -3.5625 12.90625 -3.9375 C 12.351562 -4.082031 11.890625 -4.226562 11.515625 -4.375 C 11.148438 -4.519531 10.820312 -4.6875 10.53125 -4.875 C 10.238281 -5.0625 9.929688 -5.253906 9.609375 -5.453125 C 9.296875 -5.660156 8.957031 -5.910156 8.59375 -6.203125 L 8.53125 -6.203125 C 7.976562 -6.835938 7.515625 -7.359375 7.140625 -7.765625 C 6.773438 -8.171875 6.460938 -8.53125 6.203125 -8.84375 C 5.941406 -9.15625 5.707031 -9.445312 5.5 -9.71875 C 5.300781 -10 5.078125 -10.304688 4.828125 -10.640625 C 3.828125 -11.785156 3.21875 -13.578125 3 -16.015625 C 2.957031 -16.460938 2.945312 -16.953125 2.96875 -17.484375 C 2.988281 -18.023438 3.023438 -18.550781 3.078125 -19.0625 C 3.128906 -19.582031 3.207031 -20.050781 3.3125 -20.46875 C 3.425781 -20.894531 3.539062 -21.238281 3.65625 -21.5 C 3.84375 -21.832031 3.972656 -22.222656 4.046875 -22.671875 C 4.046875 -22.816406 4.144531 -23.128906 4.34375 -23.609375 C 4.550781 -24.085938 4.789062 -24.601562 5.0625 -25.15625 C 5.34375 -25.71875 5.640625 -26.242188 5.953125 -26.734375 C 6.265625 -27.234375 6.535156 -27.613281 6.765625 -27.875 C 6.910156 -28.09375 7.046875 -28.296875 7.171875 -28.484375 C 7.304688 -28.671875 7.410156 -28.894531 7.484375 -29.15625 C 7.628906 -29.332031 7.773438 -29.519531 7.921875 -29.71875 C 8.066406 -29.925781 8.269531 -30.144531 8.53125 -30.375 C 8.863281 -30.632812 9.050781 -30.929688 9.09375 -31.265625 C 9.125 -31.410156 9.253906 -31.554688 9.484375 -31.703125 C 10.066406 -32.253906 10.878906 -32.769531 11.921875 -33.25 L 11.6875 -33.25 L 11.859375 -33.703125 L 12.296875 -33.703125 L 12.421875 -34.1875 L 12.75 -34.1875 C 13.78125 -33.96875 14.796875 -34.117188 15.796875 -34.640625 L 16.015625 -34.640625 C 16.535156 -34.492188 16.96875 -34.390625 17.3125 -34.328125 C 17.664062 -34.273438 18.046875 -34.25 18.453125 -34.25 C 19.003906 -34.25 19.660156 -34.164062 20.421875 -34 C 21.179688 -33.832031 21.875 -33.617188 22.5 -33.359375 C 22.90625 -33.179688 23.203125 -33.050781 23.390625 -32.96875 C 23.578125 -32.894531 23.6875 -32.859375 23.71875 -32.859375 L 23.9375 -32.859375 L 24.5 -32.421875 C 25.050781 -31.941406 25.4375 -31.703125 25.65625 -31.703125 L 25.71875 -31.703125 C 25.976562 -31.515625 26.195312 -31.363281 26.375 -31.25 C 26.5625 -31.144531 26.710938 -31.035156 26.828125 -30.921875 C 27.234375 -30.515625 27.535156 -30.253906 27.734375 -30.140625 C 27.941406 -30.035156 28.191406 -29.960938 28.484375 -29.921875 L 28.65625 -29.921875 C 29.28125 -29.296875 29.710938 -28.863281 29.953125 -28.625 C 30.191406 -28.382812 30.347656 -28.0625 30.421875 -27.65625 C 30.492188 -27.394531 30.613281 -27.078125 30.78125 -26.703125 C 30.945312 -26.335938 31.125 -25.898438 31.3125 -25.390625 C 31.238281 -25.273438 31.144531 -25.160156 31.03125 -25.046875 C 31.070312 -25.046875 31.09375 -25.007812 31.09375 -24.9375 C 31.09375 -24.863281 31.09375 -24.644531 31.09375 -24.28125 C 31.09375 -23.875 31.164062 -23.519531 31.3125 -23.21875 C 31.601562 -22.851562 31.734375 -22.46875 31.703125 -22.0625 Z M 25.65625 -14.078125 C 25.726562 -14.296875 25.789062 -14.632812 25.84375 -15.09375 C 25.90625 -15.5625 25.953125 -16.117188 25.984375 -16.765625 C 26.023438 -17.410156 26.035156 -18.09375 26.015625 -18.8125 C 26.003906 -19.53125 25.976562 -20.242188 25.9375 -20.953125 C 25.863281 -22.128906 25.675781 -23.097656 25.375 -23.859375 C 25.082031 -24.617188 24.734375 -25.332031 24.328125 -26 C 23.890625 -26.726562 23.539062 -27.222656 23.28125 -27.484375 C 23.019531 -27.742188 22.648438 -28.078125 22.171875 -28.484375 L 22.21875 -28.484375 C 21.519531 -28.890625 21.0625 -29.203125 20.84375 -29.421875 C 20.613281 -29.648438 20.425781 -29.765625 20.28125 -29.765625 C 20.09375 -29.765625 19.890625 -29.789062 19.671875 -29.84375 C 19.453125 -29.894531 19.234375 -29.941406 19.015625 -29.984375 L 18.84375 -29.984375 L 18.734375 -30.265625 C 18.691406 -30.296875 18.523438 -30.359375 18.234375 -30.453125 C 17.941406 -30.546875 17.71875 -30.648438 17.5625 -30.765625 C 17.414062 -30.835938 17.34375 -30.875 17.34375 -30.875 L 17.234375 -30.875 C 16.796875 -30.644531 16.375 -30.441406 15.96875 -30.265625 C 15.632812 -30.078125 15.289062 -29.898438 14.9375 -29.734375 C 14.582031 -29.566406 14.332031 -29.410156 14.1875 -29.265625 C 14.113281 -29.148438 13.984375 -29.019531 13.796875 -28.875 C 13.609375 -28.726562 13.390625 -28.5625 13.140625 -28.375 L 13.1875 -28.375 L 12.796875 -27.828125 L 12.75 -27.828125 L 12.140625 -27.328125 L 12.1875 -27.328125 C 11.894531 -26.804688 11.597656 -26.34375 11.296875 -25.9375 C 11.003906 -25.53125 10.765625 -25.179688 10.578125 -24.890625 C 10.328125 -24.515625 10.164062 -24.109375 10.09375 -23.671875 C 10.050781 -23.484375 10.007812 -23.332031 9.96875 -23.21875 C 9.9375 -23.113281 9.828125 -23.003906 9.640625 -22.890625 C 9.609375 -22.890625 9.570312 -22.804688 9.53125 -22.640625 C 9.5 -22.472656 9.484375 -22.296875 9.484375 -22.109375 C 9.441406 -21.929688 9.382812 -21.757812 9.3125 -21.59375 C 9.238281 -21.425781 9.164062 -21.210938 9.09375 -20.953125 C 9.019531 -20.804688 8.960938 -20.582031 8.921875 -20.28125 C 8.890625 -19.988281 8.890625 -19.65625 8.921875 -19.28125 C 8.960938 -18.988281 8.984375 -18.710938 8.984375 -18.453125 C 8.984375 -18.191406 8.945312 -17.894531 8.875 -17.5625 C 8.71875 -17.226562 8.71875 -16.914062 8.875 -16.625 C 8.90625 -16.4375 8.9375 -16.296875 8.96875 -16.203125 C 9.007812 -16.117188 8.992188 -15.984375 8.921875 -15.796875 C 8.847656 -15.535156 8.882812 -15.296875 9.03125 -15.078125 C 9.21875 -14.859375 9.289062 -14.632812 9.25 -14.40625 C 9.175781 -14.144531 9.253906 -13.941406 9.484375 -13.796875 L 9.53125 -13.796875 C 9.90625 -13.359375 10.273438 -12.785156 10.640625 -12.078125 L 10.53125 -12.078125 L 12.296875 -10.578125 L 12.359375 -10.578125 C 12.546875 -10.359375 12.675781 -10.210938 12.75 -10.140625 C 12.820312 -10.066406 12.914062 -10.050781 13.03125 -10.09375 C 13.46875 -10.195312 13.816406 -10.117188 14.078125 -9.859375 C 14.441406 -9.679688 14.828125 -9.523438 15.234375 -9.390625 C 15.640625 -9.265625 16.066406 -9.203125 16.515625 -9.203125 C 17.066406 -9.203125 17.492188 -9.128906 17.796875 -8.984375 L 17.84375 -8.984375 C 18.101562 -8.796875 18.390625 -8.691406 18.703125 -8.671875 C 19.015625 -8.648438 19.429688 -8.71875 19.953125 -8.875 C 20.359375 -9.019531 20.882812 -9.203125 21.53125 -9.421875 C 22.175781 -9.640625 22.738281 -9.9375 23.21875 -10.3125 C 23.40625 -10.457031 23.632812 -10.640625 23.90625 -10.859375 C 24.1875 -11.078125 24.550781 -11.335938 25 -11.640625 L 24.890625 -11.640625 C 25.066406 -12.160156 25.21875 -12.625 25.34375 -13.03125 C 25.476562 -13.4375 25.582031 -13.785156 25.65625 -14.078125 Z M 25.65625 -14.078125 "/></g></g></g><g fill="#000000" fill-opacity="1"><g transform="translate(235.511731, 49.407489)"><g><path d="M 11.75 -34.359375 C 11.894531 -34.359375 12.003906 -34.378906 12.078125 -34.421875 C 12.117188 -34.421875 12.460938 -34.410156 13.109375 -34.390625 C 13.753906 -34.367188 14.53125 -34.347656 15.4375 -34.328125 C 16.34375 -34.316406 17.285156 -34.28125 18.265625 -34.21875 C 19.242188 -34.164062 20.066406 -34.101562 20.734375 -34.03125 C 21.429688 -33.914062 22 -33.800781 22.4375 -33.6875 C 22.882812 -33.582031 23.238281 -33.492188 23.5 -33.421875 C 23.789062 -33.234375 24.03125 -33.109375 24.21875 -33.046875 C 24.40625 -32.992188 24.570312 -32.953125 24.71875 -32.921875 C 25.050781 -32.804688 25.328125 -32.675781 25.546875 -32.53125 C 25.660156 -32.457031 25.804688 -32.351562 25.984375 -32.21875 C 26.171875 -32.09375 26.394531 -31.921875 26.65625 -31.703125 L 27.9375 -30.421875 L 27.328125 -29.703125 L 27.703125 -29.265625 C 27.742188 -29.191406 27.707031 -28.691406 27.59375 -27.765625 C 27.488281 -26.878906 27.367188 -26.285156 27.234375 -25.984375 C 27.109375 -25.691406 26.898438 -25.34375 26.609375 -24.9375 L 26 -24.78125 L 24.390625 -22.9375 C 24.203125 -22.757812 23.988281 -22.613281 23.75 -22.5 C 23.507812 -22.382812 23.257812 -22.289062 23 -22.21875 L 22.609375 -21.890625 L 21.78125 -21.609375 C 21.1875 -20.722656 20.539062 -20.003906 19.84375 -19.453125 L 18.34375 -18.84375 L 18.0625 -18.671875 L 16.515625 -17.671875 L 15.90625 -17.453125 C 16.195312 -17.085938 16.453125 -16.789062 16.671875 -16.5625 C 16.898438 -16.34375 17.070312 -16.160156 17.1875 -16.015625 C 17.4375 -15.753906 17.765625 -15.273438 18.171875 -14.578125 C 18.503906 -13.910156 18.945312 -13.175781 19.5 -12.375 C 20.0625 -11.582031 20.582031 -11.023438 21.0625 -10.703125 C 21.582031 -10.367188 21.894531 -10.050781 22 -9.75 C 22.070312 -9.414062 22.164062 -9.234375 22.28125 -9.203125 C 22.3125 -9.128906 22.347656 -9.0625 22.390625 -9 C 22.429688 -8.945312 22.410156 -8.882812 22.328125 -8.8125 C 22.328125 -8.738281 22.398438 -8.617188 22.546875 -8.453125 C 22.703125 -8.285156 22.898438 -8.085938 23.140625 -7.859375 C 23.378906 -7.640625 23.632812 -7.410156 23.90625 -7.171875 C 24.1875 -6.929688 24.457031 -6.738281 24.71875 -6.59375 C 25.238281 -6.257812 25.679688 -5.890625 26.046875 -5.484375 C 26.421875 -5.078125 26.644531 -4.765625 26.71875 -4.546875 C 26.71875 -4.429688 26.753906 -4.191406 26.828125 -3.828125 L 26.609375 -3.65625 C 26.203125 -3.726562 25.832031 -3.800781 25.5 -3.875 C 25.164062 -3.945312 24.679688 -4.171875 24.046875 -4.546875 C 23.460938 -4.835938 23.019531 -5.019531 22.71875 -5.09375 L 21.953125 -5.203125 L 21.5625 -5.484375 L 19.234375 -6.984375 C 18.566406 -7.535156 17.945312 -8.003906 17.375 -8.390625 C 16.800781 -8.785156 16.332031 -9.109375 15.96875 -9.359375 C 15.113281 -9.847656 14.222656 -10.515625 13.296875 -11.359375 C 12.859375 -11.804688 12.453125 -12.175781 12.078125 -12.46875 C 11.710938 -12.757812 11.367188 -13.023438 11.046875 -13.265625 C 10.734375 -13.515625 10.421875 -13.757812 10.109375 -14 C 9.796875 -14.238281 9.472656 -14.503906 9.140625 -14.796875 C 8.921875 -14.535156 8.773438 -14.367188 8.703125 -14.296875 C 8.660156 -14.222656 8.617188 -14.082031 8.578125 -13.875 C 8.546875 -13.675781 8.492188 -13.429688 8.421875 -13.140625 C 8.347656 -12.804688 8.253906 -12.394531 8.140625 -11.90625 C 8.035156 -11.425781 7.925781 -11.0625 7.8125 -10.8125 C 7.625 -10.507812 7.492188 -10.238281 7.421875 -10 C 7.347656 -9.757812 7.273438 -9.507812 7.203125 -9.25 C 7.128906 -9 7.070312 -8.769531 7.03125 -8.5625 C 7 -8.363281 6.945312 -8.1875 6.875 -8.03125 C 6.726562 -7.695312 6.617188 -7.347656 6.546875 -6.984375 C 6.503906 -6.796875 6.445312 -6.632812 6.375 -6.5 C 6.300781 -6.375 6.242188 -6.222656 6.203125 -6.046875 C 6.171875 -5.859375 6.117188 -5.695312 6.046875 -5.5625 C 5.972656 -5.4375 5.9375 -5.316406 5.9375 -5.203125 C 5.9375 -4.953125 5.785156 -4.625 5.484375 -4.21875 L 3.9375 -3.71875 C 3.894531 -3.75 3.875 -3.820312 3.875 -3.9375 C 3.875 -3.96875 3.910156 -4.007812 3.984375 -4.0625 C 4.054688 -4.125 4.148438 -4.25 4.265625 -4.4375 C 4.335938 -4.726562 4.394531 -5.226562 4.4375 -5.9375 C 4.320312 -6.664062 4.335938 -7.363281 4.484375 -8.03125 C 4.597656 -8.769531 4.597656 -9.546875 4.484375 -10.359375 C 4.410156 -10.765625 4.390625 -11.289062 4.421875 -11.9375 C 4.460938 -12.582031 4.578125 -13.222656 4.765625 -13.859375 C 4.835938 -14.410156 4.898438 -14.867188 4.953125 -15.234375 C 5.015625 -15.609375 4.972656 -15.925781 4.828125 -16.1875 C 4.671875 -16.476562 4.6875 -16.789062 4.875 -17.125 C 5.0625 -17.414062 5.132812 -17.691406 5.09375 -17.953125 C 5.019531 -18.210938 5.078125 -18.4375 5.265625 -18.625 C 5.453125 -18.882812 5.453125 -19.085938 5.265625 -19.234375 C 5.046875 -19.378906 5 -19.503906 5.125 -19.609375 C 5.257812 -19.722656 5.328125 -19.96875 5.328125 -20.34375 C 5.328125 -20.675781 5.34375 -21.046875 5.375 -21.453125 C 5.414062 -21.859375 5.472656 -22.300781 5.546875 -22.78125 C 5.578125 -23.21875 5.617188 -23.738281 5.671875 -24.34375 C 5.734375 -24.957031 5.769531 -25.578125 5.78125 -26.203125 C 5.800781 -26.835938 5.789062 -27.429688 5.75 -27.984375 C 5.71875 -28.535156 5.648438 -28.960938 5.546875 -29.265625 C 5.316406 -29.816406 4.984375 -30.273438 4.546875 -30.640625 C 4.171875 -30.941406 3.890625 -31.191406 3.703125 -31.390625 C 3.523438 -31.597656 3.210938 -31.976562 2.765625 -32.53125 L 3.15625 -33.140625 L 3.828125 -32.921875 C 4.234375 -33.140625 4.523438 -33.285156 4.703125 -33.359375 C 4.890625 -33.429688 5.148438 -33.453125 5.484375 -33.421875 C 5.703125 -33.347656 6.3125 -33.457031 7.3125 -33.75 C 7.71875 -33.820312 8.125 -33.894531 8.53125 -33.96875 C 8.9375 -34.039062 9.289062 -34.078125 9.59375 -34.078125 C 10.175781 -34.046875 10.585938 -34.035156 10.828125 -34.046875 C 11.066406 -34.066406 11.375 -34.171875 11.75 -34.359375 Z M 9.09375 -31.09375 L 9.09375 -30.765625 C 9.09375 -30.679688 9.238281 -30.492188 9.53125 -30.203125 C 9.644531 -30.054688 9.820312 -30 10.0625 -30.03125 C 10.300781 -30.070312 10.421875 -29.984375 10.421875 -29.765625 C 10.421875 -29.648438 10.503906 -29.546875 10.671875 -29.453125 C 10.835938 -29.359375 11.03125 -29.253906 11.25 -29.140625 C 11.46875 -29.035156 11.675781 -28.914062 11.875 -28.78125 C 12.082031 -28.65625 12.242188 -28.519531 12.359375 -28.375 C 12.578125 -28.082031 12.664062 -27.664062 12.625 -27.125 C 12.59375 -26.59375 12.492188 -26.03125 12.328125 -25.4375 C 12.160156 -24.84375 11.984375 -24.273438 11.796875 -23.734375 C 11.617188 -23.203125 11.507812 -22.828125 11.46875 -22.609375 C 11.46875 -22.390625 11.445312 -22.125 11.40625 -21.8125 C 11.375 -21.5 11.34375 -21.140625 11.3125 -20.734375 L 12.859375 -19.171875 L 14.078125 -18.90625 C 15.253906 -19.96875 16.140625 -20.648438 16.734375 -20.953125 C 16.992188 -21.097656 17.207031 -21.234375 17.375 -21.359375 C 17.539062 -21.492188 17.625 -21.65625 17.625 -21.84375 C 17.65625 -22.207031 17.953125 -22.570312 18.515625 -22.9375 C 18.878906 -23.382812 19.046875 -23.738281 19.015625 -24 C 18.859375 -24.332031 19.0625 -24.71875 19.625 -25.15625 C 20.132812 -25.675781 20.410156 -26.046875 20.453125 -26.265625 C 20.484375 -26.566406 20.628906 -26.898438 20.890625 -27.265625 C 21.109375 -27.640625 21.21875 -27.992188 21.21875 -28.328125 C 21.1875 -28.472656 21.148438 -28.609375 21.109375 -28.734375 C 21.078125 -28.867188 21.039062 -28.988281 21 -29.09375 C 20.851562 -29.207031 20.648438 -29.46875 20.390625 -29.875 C 19.953125 -30.019531 19.566406 -30.1875 19.234375 -30.375 C 18.929688 -30.519531 18.363281 -30.628906 17.53125 -30.703125 C 16.707031 -30.773438 15.757812 -30.796875 14.6875 -30.765625 C 14.164062 -30.765625 13.710938 -30.765625 13.328125 -30.765625 C 12.941406 -30.765625 12.640625 -30.742188 12.421875 -30.703125 C 11.828125 -30.585938 11.398438 -30.585938 11.140625 -30.703125 C 10.953125 -30.742188 10.71875 -30.800781 10.4375 -30.875 C 10.164062 -30.945312 9.847656 -31.019531 9.484375 -31.09375 Z M 9.09375 -31.09375 "/></g></g></g><g fill="#000000" fill-opacity="1"><g transform="translate(268.149686, 49.407489)"><g><path d="M 31.703125 -22.0625 C 31.628906 -21.726562 31.628906 -21.0625 31.703125 -20.0625 C 31.734375 -19.65625 31.710938 -19.285156 31.640625 -18.953125 C 31.566406 -18.617188 31.476562 -18.304688 31.375 -18.015625 C 31.300781 -17.828125 31.21875 -17.628906 31.125 -17.421875 C 31.03125 -17.222656 30.945312 -16.957031 30.875 -16.625 C 30.832031 -16.4375 30.71875 -16.101562 30.53125 -15.625 C 30.351562 -15.144531 30.097656 -14.460938 29.765625 -13.578125 L 29.59375 -13.578125 L 29.046875 -13.359375 L 29.15625 -13.359375 C 28.820312 -12.910156 28.503906 -12.410156 28.203125 -11.859375 C 27.910156 -11.304688 27.632812 -10.769531 27.375 -10.25 L 27.265625 -10.25 L 26.765625 -9.859375 C 26.472656 -9.566406 26.175781 -9.21875 25.875 -8.8125 C 25.582031 -8.40625 25.234375 -7.976562 24.828125 -7.53125 C 24.015625 -6.613281 23.109375 -5.882812 22.109375 -5.34375 C 21.109375 -4.8125 20.128906 -4.472656 19.171875 -4.328125 L 18.953125 -3.828125 L 19.125 -3.4375 L 18.953125 -3.4375 C 18.765625 -3.4375 18.648438 -3.4375 18.609375 -3.4375 C 18.578125 -3.4375 18.523438 -3.398438 18.453125 -3.328125 C 18.378906 -3.285156 18.238281 -3.253906 18.03125 -3.234375 C 17.832031 -3.222656 17.585938 -3.253906 17.296875 -3.328125 C 17.035156 -3.359375 16.773438 -3.390625 16.515625 -3.421875 C 16.253906 -3.460938 15.976562 -3.484375 15.6875 -3.484375 C 14.90625 -3.410156 13.976562 -3.5625 12.90625 -3.9375 C 12.351562 -4.082031 11.890625 -4.226562 11.515625 -4.375 C 11.148438 -4.519531 10.820312 -4.6875 10.53125 -4.875 C 10.238281 -5.0625 9.929688 -5.253906 9.609375 -5.453125 C 9.296875 -5.660156 8.957031 -5.910156 8.59375 -6.203125 L 8.53125 -6.203125 C 7.976562 -6.835938 7.515625 -7.359375 7.140625 -7.765625 C 6.773438 -8.171875 6.460938 -8.53125 6.203125 -8.84375 C 5.941406 -9.15625 5.707031 -9.445312 5.5 -9.71875 C 5.300781 -10 5.078125 -10.304688 4.828125 -10.640625 C 3.828125 -11.785156 3.21875 -13.578125 3 -16.015625 C 2.957031 -16.460938 2.945312 -16.953125 2.96875 -17.484375 C 2.988281 -18.023438 3.023438 -18.550781 3.078125 -19.0625 C 3.128906 -19.582031 3.207031 -20.050781 3.3125 -20.46875 C 3.425781 -20.894531 3.539062 -21.238281 3.65625 -21.5 C 3.84375 -21.832031 3.972656 -22.222656 4.046875 -22.671875 C 4.046875 -22.816406 4.144531 -23.128906 4.34375 -23.609375 C 4.550781 -24.085938 4.789062 -24.601562 5.0625 -25.15625 C 5.34375 -25.71875 5.640625 -26.242188 5.953125 -26.734375 C 6.265625 -27.234375 6.535156 -27.613281 6.765625 -27.875 C 6.910156 -28.09375 7.046875 -28.296875 7.171875 -28.484375 C 7.304688 -28.671875 7.410156 -28.894531 7.484375 -29.15625 C 7.628906 -29.332031 7.773438 -29.519531 7.921875 -29.71875 C 8.066406 -29.925781 8.269531 -30.144531 8.53125 -30.375 C 8.863281 -30.632812 9.050781 -30.929688 9.09375 -31.265625 C 9.125 -31.410156 9.253906 -31.554688 9.484375 -31.703125 C 10.066406 -32.253906 10.878906 -32.769531 11.921875 -33.25 L 11.6875 -33.25 L 11.859375 -33.703125 L 12.296875 -33.703125 L 12.421875 -34.1875 L 12.75 -34.1875 C 13.78125 -33.96875 14.796875 -34.117188 15.796875 -34.640625 L 16.015625 -34.640625 C 16.535156 -34.492188 16.96875 -34.390625 17.3125 -34.328125 C 17.664062 -34.273438 18.046875 -34.25 18.453125 -34.25 C 19.003906 -34.25 19.660156 -34.164062 20.421875 -34 C 21.179688 -33.832031 21.875 -33.617188 22.5 -33.359375 C 22.90625 -33.179688 23.203125 -33.050781 23.390625 -32.96875 C 23.578125 -32.894531 23.6875 -32.859375 23.71875 -32.859375 L 23.9375 -32.859375 L 24.5 -32.421875 C 25.050781 -31.941406 25.4375 -31.703125 25.65625 -31.703125 L 25.71875 -31.703125 C 25.976562 -31.515625 26.195312 -31.363281 26.375 -31.25 C 26.5625 -31.144531 26.710938 -31.035156 26.828125 -30.921875 C 27.234375 -30.515625 27.535156 -30.253906 27.734375 -30.140625 C 27.941406 -30.035156 28.191406 -29.960938 28.484375 -29.921875 L 28.65625 -29.921875 C 29.28125 -29.296875 29.710938 -28.863281 29.953125 -28.625 C 30.191406 -28.382812 30.347656 -28.0625 30.421875 -27.65625 C 30.492188 -27.394531 30.613281 -27.078125 30.78125 -26.703125 C 30.945312 -26.335938 31.125 -25.898438 31.3125 -25.390625 C 31.238281 -25.273438 31.144531 -25.160156 31.03125 -25.046875 C 31.070312 -25.046875 31.09375 -25.007812 31.09375 -24.9375 C 31.09375 -24.863281 31.09375 -24.644531 31.09375 -24.28125 C 31.09375 -23.875 31.164062 -23.519531 31.3125 -23.21875 C 31.601562 -22.851562 31.734375 -22.46875 31.703125 -22.0625 Z M 25.65625 -14.078125 C 25.726562 -14.296875 25.789062 -14.632812 25.84375 -15.09375 C 25.90625 -15.5625 25.953125 -16.117188 25.984375 -16.765625 C 26.023438 -17.410156 26.035156 -18.09375 26.015625 -18.8125 C 26.003906 -19.53125 25.976562 -20.242188 25.9375 -20.953125 C 25.863281 -22.128906 25.675781 -23.097656 25.375 -23.859375 C 25.082031 -24.617188 24.734375 -25.332031 24.328125 -26 C 23.890625 -26.726562 23.539062 -27.222656 23.28125 -27.484375 C 23.019531 -27.742188 22.648438 -28.078125 22.171875 -28.484375 L 22.21875 -28.484375 C 21.519531 -28.890625 21.0625 -29.203125 20.84375 -29.421875 C 20.613281 -29.648438 20.425781 -29.765625 20.28125 -29.765625 C 20.09375 -29.765625 19.890625 -29.789062 19.671875 -29.84375 C 19.453125 -29.894531 19.234375 -29.941406 19.015625 -29.984375 L 18.84375 -29.984375 L 18.734375 -30.265625 C 18.691406 -30.296875 18.523438 -30.359375 18.234375 -30.453125 C 17.941406 -30.546875 17.71875 -30.648438 17.5625 -30.765625 C 17.414062 -30.835938 17.34375 -30.875 17.34375 -30.875 L 17.234375 -30.875 C 16.796875 -30.644531 16.375 -30.441406 15.96875 -30.265625 C 15.632812 -30.078125 15.289062 -29.898438 14.9375 -29.734375 C 14.582031 -29.566406 14.332031 -29.410156 14.1875 -29.265625 C 14.113281 -29.148438 13.984375 -29.019531 13.796875 -28.875 C 13.609375 -28.726562 13.390625 -28.5625 13.140625 -28.375 L 13.1875 -28.375 L 12.796875 -27.828125 L 12.75 -27.828125 L 12.140625 -27.328125 L 12.1875 -27.328125 C 11.894531 -26.804688 11.597656 -26.34375 11.296875 -25.9375 C 11.003906 -25.53125 10.765625 -25.179688 10.578125 -24.890625 C 10.328125 -24.515625 10.164062 -24.109375 10.09375 -23.671875 C 10.050781 -23.484375 10.007812 -23.332031 9.96875 -23.21875 C 9.9375 -23.113281 9.828125 -23.003906 9.640625 -22.890625 C 9.609375 -22.890625 9.570312 -22.804688 9.53125 -22.640625 C 9.5 -22.472656 9.484375 -22.296875 9.484375 -22.109375 C 9.441406 -21.929688 9.382812 -21.757812 9.3125 -21.59375 C 9.238281 -21.425781 9.164062 -21.210938 9.09375 -20.953125 C 9.019531 -20.804688 8.960938 -20.582031 8.921875 -20.28125 C 8.890625 -19.988281 8.890625 -19.65625 8.921875 -19.28125 C 8.960938 -18.988281 8.984375 -18.710938 8.984375 -18.453125 C 8.984375 -18.191406 8.945312 -17.894531 8.875 -17.5625 C 8.71875 -17.226562 8.71875 -16.914062 8.875 -16.625 C 8.90625 -16.4375 8.9375 -16.296875 8.96875 -16.203125 C 9.007812 -16.117188 8.992188 -15.984375 8.921875 -15.796875 C 8.847656 -15.535156 8.882812 -15.296875 9.03125 -15.078125 C 9.21875 -14.859375 9.289062 -14.632812 9.25 -14.40625 C 9.175781 -14.144531 9.253906 -13.941406 9.484375 -13.796875 L 9.53125 -13.796875 C 9.90625 -13.359375 10.273438 -12.785156 10.640625 -12.078125 L 10.53125 -12.078125 L 12.296875 -10.578125 L 12.359375 -10.578125 C 12.546875 -10.359375 12.675781 -10.210938 12.75 -10.140625 C 12.820312 -10.066406 12.914062 -10.050781 13.03125 -10.09375 C 13.46875 -10.195312 13.816406 -10.117188 14.078125 -9.859375 C 14.441406 -9.679688 14.828125 -9.523438 15.234375 -9.390625 C 15.640625 -9.265625 16.066406 -9.203125 16.515625 -9.203125 C 17.066406 -9.203125 17.492188 -9.128906 17.796875 -8.984375 L 17.84375 -8.984375 C 18.101562 -8.796875 18.390625 -8.691406 18.703125 -8.671875 C 19.015625 -8.648438 19.429688 -8.71875 19.953125 -8.875 C 20.359375 -9.019531 20.882812 -9.203125 21.53125 -9.421875 C 22.175781 -9.640625 22.738281 -9.9375 23.21875 -10.3125 C 23.40625 -10.457031 23.632812 -10.640625 23.90625 -10.859375 C 24.1875 -11.078125 24.550781 -11.335938 25 -11.640625 L 24.890625 -11.640625 C 25.066406 -12.160156 25.21875 -12.625 25.34375 -13.03125 C 25.476562 -13.4375 25.582031 -13.785156 25.65625 -14.078125 Z M 25.65625 -14.078125 "/></g></g></g></svg>